<?xml version="1.0" encoding="utf-8"?>
<!-- Svg Vector Icons : http://www.onlinewebfonts.com/icon -->
<!DOCTYPE svg PUBLIC "-//W3C//DTD SVG 1.1//EN" "http://www.w3.org/Graphics/SVG/1.1/DTD/svg11.dtd">
<svg version="1.1" xmlns="http://www.w3.org/2000/svg" xmlns:xlink="http://www.w3.org/1999/xlink" x="0px" y="0px" viewBox="0 0 1000 1000" enable-background="new 0 0 1000 1000" xml:space="preserve">
<metadata> Svg Vector Icons : http://www.onlinewebfonts.com/icon </metadata>
<g><path d="M370.9,451.2c14.2-1.7,25.5-6.6,33.6-14.8c8.2-8.2,12.2-18.9,12.2-32.2c0-12.7-3.5-23.1-10.5-31.1c-7-8-17.5-12.8-31.4-14.5c-8.3-0.9-32-1.4-71.2-1.4h-47.8v95.3h54.6C342.9,452.6,363.1,452.1,370.9,451.2z"/><path d="M397,527.1c-11.3-3.9-36-5.9-73.8-5.9h-67.2v110.2H333c30,0,49-0.8,57.1-2.5c12.4-2.3,22.4-7.7,30.2-16.5c7.8-8.7,11.7-20.4,11.7-35c0-12.4-3-22.9-9-31.5C417,537.3,408.3,531.1,397,527.1z"/><path d="M500,10C229.4,10,10,229.4,10,500c0,270.6,219.4,490,490,490c270.6,0,490-219.4,490-490C990,229.4,770.6,10,500,10z M605.3,320.5h165.2V367H605.3V320.5z M504.9,636.1c-8.7,17.7-20.6,31.9-35.7,42.5c-15.1,10.6-33.7,17.1-55.8,19.5c-13.9,1.5-47.3,2.4-100.4,2.8H172.7V288.6h164.8c32.6,0,56.9,1.4,73,4.1c16,2.7,30.4,8.4,43,17c12.7,8.6,23.2,20.1,31.6,34.4c8.4,14.3,12.7,30.4,12.7,48.2c0,19.3-5.2,37-15.6,53.2c-10.4,16.1-24.5,28.2-42.3,36.3c25.1,7.3,44.4,19.8,57.9,37.4c13.5,17.6,20.2,38.3,20.2,62.1C518,600.2,513.7,618.4,504.9,636.1z M835.4,574.4H623.8c0.6,23.4,7.4,41.7,20.4,54.7c13,13,29.3,19.5,48.7,19.5c13.2,0,24.4-3.4,33.4-10.1s15.8-17.6,20.4-32.6l84.2,13.2C820.1,648,803,669.9,779.7,685c-23.4,15.1-52.6,22.6-87.6,22.6c-55.5,0-96.6-17-123.3-50.9c-21-27.2-31.6-61.5-31.6-102.9c0-49.5,13.8-88.3,41.5-116.3c27.7-28,62.6-42,104.9-42c47.5,0,85,14.7,112.5,44C823.5,468.9,836.6,513.8,835.4,574.4z"/><path d="M688.7,456c-18.4,0-33.7,6.3-45.7,18.8c-12,12.6-17.9,29.6-17.7,51.2h126.3c-0.6-22.9-6.9-40.3-18.9-52.2C720.6,461.9,705.9,456,688.7,456z"/></g>
</svg>